# xmcd
#
# Track frame offsets: 
#        150
#        16565
#        33588
#        49233
#        64360
#        79028
#        94555
#        107735
#        122938
#        139688
#        158013
#        174918
#        187348
#        201495
#        214288
#        228723
#        243240
#        255808
#
# Disc length: 3624 seconds
#
# Revision: 0
# Processed by: cddbd v1.5.2PL0 Copyright (c) Steve Scherf et al.
# Submitted via: ExactAudioCopyFreeDBPlugin 1.0
#
DISCID=f80e2612
DTITLE=ちあきなおみ - うたくらべ 誕生
DYEAR=1900
DGENRE=Easy Listening
TTITLE0=雨に濡れた慕情
TTITLE1=朝がくるまえに
TTITLE2=四つのお願い
TTITLE3=X＋Y＝LOVE
TTITLE4=夜明けまでだまってて
TTITLE5=別れたあとで
TTITLE6=無駄な抵抗やめましょう
TTITLE7=私という女
TTITLE8=忘れえぬ慕情
TTITLE9=しのび逢う恋
TTITLE10=今日で終って
TTITLE11=お別れ記念
TTITLE12=恋した女
TTITLE13=ついて行けないわ
TTITLE14=禁じられた恋の島
TTITLE15=風の吹く日と一日（ついたち）は
TTITLE16=最后の電話
TTITLE17=喝采
EXTD=
EXTT0=
EXTT1=
EXTT2=
EXTT3=
EXTT4=
EXTT5=
EXTT6=
EXTT7=
EXTT8=
EXTT9=
EXTT10=
EXTT11=
EXTT12=
EXTT13=
EXTT14=
EXTT15=
EXTT16=
EXTT17=
PLAYORDER=
